<?xml version="1.0" encoding="UTF-8" standalone="no"?>
<svg
   width="1343"
   height="1567"
   viewBox="0 0 1343 1567"
   fill="none"
   version="1.1"
   id="svg1"
   sodipodi:docname="nostr_pink.svg"
   xmlns:inkscape="http://www.inkscape.org/namespaces/inkscape"
   xmlns:sodipodi="http://sodipodi.sourceforge.net/DTD/sodipodi-0.dtd"
   xmlns="http://www.w3.org/2000/svg"
   xmlns:svg="http://www.w3.org/2000/svg">
  <defs
     id="defs1" />
  <sodipodi:namedview
     id="namedview1"
     pagecolor="#ffffff"
     bordercolor="#000000"
     borderopacity="0.25"
     inkscape:showpageshadow="2"
     inkscape:pageopacity="0.0"
     inkscape:pagecheckerboard="0"
     inkscape:deskcolor="#d1d1d1" />
  <path
     d="m 1341.73,359.738 c -3.6,-35.2 -15.2,-67 -37.6,-94.8 -19.8,-24.6 -45.2,-42.2 -69.2,-62 -12,-9.8 -43.8,-36.4 -47.8,-51.4 -4.8,-18.2 2.6,-36.8 19.2,-42.8 25,-8.4 66.8,-8.2 91,-6.6 20.6,1.6 41.8,-5.6003 42.6,-14.0003 0.8,-8.4 -11.4,-20.8 -27.6,-24.6 -12.8,-3 -32.4,-7.6 -44.2,-15.4 -21,-14.2 -42.4,-40.20002 -71.6,-46.00002 -41.6,-8.2 -70.6,7.4 -84.2,43.20002 -21.6,51.2 -7.6,116.8003 37.8,164.8003 20.4,21.6 44.2,40.2 67,59.6 16.8,14.4 31.6,30.2 45.8,47.8 38,47.4 -2.2,134.4 -11.8,144.4 -33.6,34.8 -62.8,41.2 -120.8,38.8 -57,-2.4 -204.805,-78.8 -283.005,-81.2 -193.6,-6 -328,83.4 -373.4,106.6 -68,34.8 -164.8,37 -167.8,38 -43.8,3.4 -134.6,6.8 -179.6,22.4 -63.3998,17.6 -97.5998,46.6 -120.7998,111.4 -7.2,28 -8.59997,53.4 1.60003,68.8 22.19997,33.6 81.99997,61.6 109.19977,77 14,8 41.6,-2 47,-5.8 30.4,-20.6 57.2,-36.8 93.2,-42 7.6,-1.2 58.4,-10.2 84,8.6 18.6,13.6 34.6,21.8 55.6,31.4 38.4,17.4 123,39.4 124.6,39.8 11.4,3 26,8.8 26,19 0,14.4 -134.4,126.802 -141.8,129.602 -33.8,13.8 -53.4,36 -59.6,68 -2,10.4 -6.6,21.2 -12.4,29.8 -21.8,31.6 -118.4,168.8 -144,206.4 -12.2,17.6 -24.8,26.4 -42.2,29.2 -25,4 -43.8,4.6 -54.3998,22.4 -6.6,11.4 -2.4,33.6 2,48 5,16.4 -8.6,36.8 -9.6,39.2 -12,23.4 -17,45.8 -15.2,68.4 0.6,9.2 1.2,30.6 16.4,31.2 15.1998,0.8 19.1998,-9 20.9998,-12.6 2.2,-4.4 10.6,-22.6 13,-27 9.8,-18.2 47.2,-57.4 51.4,-62 13.4,-14.8 213.4,-290.2 213.4,-290.2 11,-14.4 22.4,-29.2 41,-36.4 25.8,-10 43,-30.6 48,-57.8 1.2,-6 81,-67.2 115,-93.002 12.4,-9.4 87.6,-39.6 88.8,-39.2 0,0.6 -68.8,104.202 -90.2,159.202 -3.4,8.8 -9,38.8 -2.8,54 9.6,23.4 30.2,33.6 53.6,26.6 7.2,-2.2 13.6,-5.8 19.8,-9.2 2.8,-1.6 5.6,-3 8.4,-4.4 2.8,-1.4 5.4,-2.8 8.2,-4.2 6.4,-3.4 12.6,-6.6 18.8,-8.6 23,-7.6 46.2,-14.8 69.4,-22 l 47,-14.6 c 32.8,-10.2 65.6,-20.4 98.4,-30.4 7.2,-2.2 14.2,-4.8 23.2,-4.6 5,0 10.4,2 12.2,9.4 0,0.4 3.8,22.8 17.6,31.8 7,4.6 22,8.2 33.2,7.8 9.805,-0.4 22.205,2.4 28.605,8 l 8.2,7 c 6,5 13.4,7.8 18.4,9.2 5.2,1.4 14.8,1.4 20.4,-4.4 6,-6.4 3.8,-16.8 3,-20 -1.2,-4.4 -3.6,-7.8 -5.4,-10.8 l -5,-7.8 c -4.8,-7.6 -9.4,-15.2 -14.4,-22.8 -13.8,-21 -27.4,-41.8 -41.4,-62.6 -14.605,-21.6 -37.205,-30.2 -66.805,-25.6 -11.4,1.8 -261.6,79.4 -263.4,79.8 13.4,-24.6 93.6,-135.402 116,-149.402 16.6,-9.8 23.6,-19.2 53.8,-24.4 59,-10 187.005,-39.6 218.805,-62.6 61.8,-44.8 66.8,-146.6 65.8,-167 -1.2,-20.4 5.4,-34.4 23.2,-43.8 8.8,-4.6 104,-57.2 150.6,-134.8 28,-45.4 42.4,-94 36.8,-147.8 z"
     fill="black"
     id="path1"
     style="fill:#8d45dd;fill-opacity:1" />
</svg>
