<svg width="2982" height="875" viewBox="0 0 2982 875" fill="none" xmlns="http://www.w3.org/2000/svg">
<path fill-rule="evenodd" clip-rule="evenodd" d="M1047.09 457.999H1089.37V374H1131.64V332H1089.37V290V248H1047.09V290H1004.82V332H962.549V374H1004.82V457.999H962.549V583.999H1004.82V625.999H1089.37V583.999H1131.64V541.999H1089.37V583.999H1047.09V457.999ZM1596.64 541.999V583.999H1681.19V625.999H1554.37V583.999H1512.1V416H1554.37V374H1596.64V499.999H1554.37V541.999H1596.64ZM1596.64 374V332H1723.46V374H1765.73V541.999H1723.46V583.999H1681.19V457.999H1723.46V416H1681.19V374H1596.64ZM1469.82 416L1512.1 416L1512.1 290H1469.82V248H1216.19V290H1258.46V332H1216.19V458H1173.91V584H1131.64V626H1300.73V584H1258.46V500H1427.55V458H1469.82V416ZM708.911 458H751.184V584H708.911V626H413V584H455.273V458H497.546V332H539.819V290H497.546V248H751.184V290H793.457V374H751.184V416H708.911V458ZM751.184 625.999L751.184 584L793.457 583.999V457.999H835.73V374H920.276V457.999H878.003V583.999H920.276V625.999H751.184ZM624.365 290V332H582.092V416H666.638V374H708.911V290H624.365ZM539.819 500V584H624.365V542H666.638V458H582.092V500H539.819ZM2399.83 583.999V541.999H2357.56V499.999H2399.83V374H2484.37V416H2526.65V457.999H2484.37V583.999H2399.83ZM2273.01 583.999V541.999H2315.28V416H2357.56V374H2399.83V332H2526.65V374H2568.92V541.999H2526.65V583.999H2484.37V625.999H2357.56V583.999H2273.01ZM2273.01 625.999V583.999H2230.74V457.999H2273.01V374H2315.28V332H2273.01V248H2230.74V290H2188.46V332H2146.19V374H2188.46V457.999H2146.19V583.999H2188.46V625.999H2273.01ZM1977.1 332H1934.83V457.999H1892.55V625.999H1765.73V583.999H1808.01V457.999H1850.28V332H1892.55V248H1977.1V332ZM1385.28 416V458H1300.73V332H1343V290H1427.55V416H1385.28ZM835.73 332V248H920.276V290H878.003V332H835.73ZM2019.37 374V457.999H1977.1V583.999H1934.83V625.999H2103.92V583.999H2061.65V457.999H2103.92V374H2019.37ZM2061.65 332H2019.37V248H2103.92V290H2061.65V332Z" fill="#001CE0"/>
</svg>
